

INFORMATION

General
Complete name                    : Rio (2011) 480p{Daremusic}.mp4
Format                           : MPEG-4
Format profile                   : Base Media
Codec ID                         : isom
File size                        : 303 MiB
Duration                         : 1h 34mn
Overall bit rate                 : 447 Kbps
Encoded date                     : UTC 2011-05-05 21:39:08
Tagged date                      : UTC 2011-05-05 21:39:08

Video
ID                               : 1
Format                           : AVC
Format/Info                      : Advanced Video Codec
Format profile                   : High@L3.1
Format settings, CABAC           : Yes
Format settings, ReFrames        : 5 frames
Codec ID                         : avc1
Codec ID/Info                    : Advanced Video Coding
Duration                         : 1h 34mn
Bit rate                         : 405 Kbps
Maximum bit rate                 : 2 560 Kbps
Width                            : 720 pixels
Height                           : 304 pixels
Display aspect ratio             : 2.35:1
Frame rate mode                  : Constant
Frame rate                       : 25.000 fps
Color space                      : YUV
Chroma subsampling               : 4:2:0
Bit depth                        : 8 bits
Scan type                        : Progressive
Bits/(Pixel*Frame)               : 0.074
Stream size                      : 274 MiB (91%)
Title                            : Imported with GPAC 0.4.6-DEV (internal rev. 5)
Writing library                  : x264 core 114 r1900 60ef1f8
Encoded date                     : UTC 2011-05-05 21:39:08
Tagged date                      : UTC 2011-05-05 21:40:01

Audio
ID                               : 2
Format                           : AAC
Format/Info                      : Advanced Audio Codec
Format profile                   : HE-AACv2 / HE-AAC / LC
Codec ID                         : 40
Duration                         : 1h 31mn
Bit rate mode                    : Variable
Bit rate                         : 40.0 Kbps
Maximum bit rate                 : 47.2 Kbps
Channel(s)                       : 2 channels / 1 channel / 1 channel
Channel positions                : Front: L R / Front: C / Front: C
Sampling rate                    : 44.1 KHz / 44.1 KHz / 22.05 KHz
Compression mode                 : Lossy
Stream size                      : 26.3 MiB (9%)
Encoded date                     : UTC 2011-05-05 21:39:59
Tagged date                      : UTC 2011-05-05 21:40:01

 
http://image.bayimg.com/dakjpaada.jpg 
http://image.bayimg.com/eakjbaada.jpg 
http://image.bayimg.com/eakjaaada.jpg 
http://image.bayimg.com/kakjoaada.jpg




say thanks
if you like the post

